<svg xmlns="http://www.w3.org/2000/svg" x="0px" y="0px" width="64" height="64" viewBox="0 0 172 172" style=" fill:#000000;"><defs><radialGradient cx="86" cy="86" r="86" gradientUnits="userSpaceOnUse" id="color-1_119280_gr1"><stop offset="0" stop-color="#f4e9c3"></stop><stop offset="0.219" stop-color="#f8eecd"></stop><stop offset="0.644" stop-color="#fdf4dc"></stop><stop offset="1" stop-color="#fff6e1"></stop></radialGradient><linearGradient x1="86" y1="175.97212" x2="86" y2="46.97213" gradientUnits="userSpaceOnUse" id="color-2_119280_gr2"><stop offset="0" stop-color="#ef6e25"></stop><stop offset="0.076" stop-color="#ef6e25"></stop><stop offset="0.449" stop-color="#ef6e25"></stop><stop offset="0.77" stop-color="#ef6e25"></stop><stop offset="1" stop-color="#ef6e25"></stop></linearGradient><linearGradient x1="86" y1="124.70269" x2="86" y2="-79.5715" gradientUnits="userSpaceOnUse" id="color-3_119280_gr3"><stop offset="0" stop-color="#ef6e25"></stop><stop offset="0.278" stop-color="#ef6e25"></stop><stop offset="0.569" stop-color="#ef6e25"></stop><stop offset="0.82" stop-color="#ef6e25"></stop><stop offset="1" stop-color="#ef6e25"></stop></linearGradient></defs><g fill="none" fill-rule="nonzero" stroke="none" stroke-width="1" stroke-linecap="butt" stroke-linejoin="miter" stroke-miterlimit="10" stroke-dasharray="" stroke-dashoffset="0" font-family="none" font-weight="none" font-size="none" text-anchor="none" style="mix-blend-mode: normal"><path d="M0,172v-172h172v172z" fill="none"></path><g><path d="M0,10.75v0c0,-5.93669 4.81331,-10.75 10.75,-10.75v0c5.93669,0 10.75,4.81331 10.75,10.75v0c0,5.93669 -4.81331,10.75 -10.75,10.75v0c-5.93669,0 -10.75,-4.81331 -10.75,-10.75zM159.90625,67.1875h-2.6875c-5.19494,0 -9.40625,4.21131 -9.40625,9.40625v0c0,5.19494 4.21131,9.40625 9.40625,9.40625h4.03125c5.93669,0 10.75,4.81331 10.75,10.75v0c0,5.93669 -4.81331,10.75 -10.75,10.75h-20.15625c-3.71144,0 -6.71875,3.00731 -6.71875,6.71875v0c0,3.71144 3.00731,6.71875 6.71875,6.71875h4.03125c5.93669,0 10.75,4.81331 10.75,10.75v0c0,5.93669 -4.81331,10.75 -10.75,10.75h-13.4375c-2.96969,0 -5.375,2.40531 -5.375,5.375v0c0,2.96969 2.40531,5.375 5.375,5.375h1.34375c5.19494,0 9.40625,4.21131 9.40625,9.40625v0c0,5.19494 -4.21131,9.40625 -9.40625,9.40625h-99.4375c-5.19494,0 -9.40625,-4.21131 -9.40625,-9.40625v0c0,-5.19494 4.21131,-9.40625 9.40625,-9.40625v0c3.71144,0 6.71875,-3.00731 6.71875,-6.71875v0c0,-3.71144 -3.00731,-6.71875 -6.71875,-6.71875h-9.40625c-5.93669,0 -10.75,-4.81331 -10.75,-10.75v0c0,-5.93669 4.81331,-10.75 10.75,-10.75h1.34375c5.19494,0 9.40625,-4.21131 9.40625,-9.40625v0c0,-5.19494 -4.21131,-9.40625 -9.40625,-9.40625h-12.09375c-7.42019,0 -13.4375,-6.01731 -13.4375,-13.4375v0c0,-7.42019 6.01731,-13.4375 13.4375,-13.4375h5.375c4.45319,0 8.0625,-3.60931 8.0625,-8.0625v0c0,-4.45319 -3.60931,-8.0625 -8.0625,-8.0625h-4.03125c-5.19494,0 -9.40625,-4.21131 -9.40625,-9.40625v0c0,-5.19494 4.21131,-9.40625 9.40625,-9.40625h30.90625c4.45319,0 8.0625,-3.60931 8.0625,-8.0625v0c0,-4.45319 -3.60931,-8.0625 -8.0625,-8.0625h-5.375c-5.93669,0 -10.75,-4.81331 -10.75,-10.75v0c0,-5.93669 4.81331,-10.75 10.75,-10.75h96.75c5.93669,0 10.75,4.81331 10.75,10.75v0c0,5.93669 -4.81331,10.75 -10.75,10.75h-5.375c-5.93669,0 -10.75,4.81331 -10.75,10.75v0c0,5.93669 4.81331,10.75 10.75,10.75h28.21875c6.67844,0 12.09375,5.41531 12.09375,12.09375v0c0,6.67844 -5.41531,12.09375 -12.09375,12.09375zM159.90625,172v0c5.19494,0 9.40625,-4.21131 9.40625,-9.40625v0c0,-5.19494 -4.21131,-9.40625 -9.40625,-9.40625v0c-5.19494,0 -9.40625,4.21131 -9.40625,9.40625v0c0,5.19494 4.21131,9.40625 9.40625,9.40625z" fill="url(#color-1_119280_gr1)"></path><path d="M86,150.5c-35.475,0 -64.5,-29.025 -64.5,-64.5c0,-35.475 29.025,-64.5 64.5,-64.5c35.475,0 64.5,29.025 64.5,64.5c0,35.475 -29.025,64.5 -64.5,64.5zM86,37.625c-26.60625,0 -48.375,21.76875 -48.375,48.375c0,26.60625 21.76875,48.375 48.375,48.375c26.60625,0 48.375,-21.76875 48.375,-48.375c0,-26.60625 -21.76875,-48.375 -48.375,-48.375z" fill="url(#color-2_119280_gr2)"></path><path d="M86,8.0625v0c4.45319,0 8.0625,3.60931 8.0625,8.0625v24.1875c0,4.45319 -3.60931,8.0625 -8.0625,8.0625v0c-4.45319,0 -8.0625,-3.60931 -8.0625,-8.0625v-24.1875c0,-4.45319 3.60931,-8.0625 8.0625,-8.0625zM86,123.625v0c4.45319,0 8.0625,3.60931 8.0625,8.0625v24.1875c0,4.45319 -3.60931,8.0625 -8.0625,8.0625v0c-4.45319,0 -8.0625,-3.60931 -8.0625,-8.0625v-24.1875c0,-4.45319 3.60931,-8.0625 8.0625,-8.0625zM16.125,77.9375h24.1875c4.45319,0 8.0625,3.60931 8.0625,8.0625v0c0,4.45319 -3.60931,8.0625 -8.0625,8.0625h-24.1875c-4.45319,0 -8.0625,-3.60931 -8.0625,-8.0625v0c0,-4.45319 3.60931,-8.0625 8.0625,-8.0625zM131.6875,77.9375h24.1875c4.45319,0 8.0625,3.60931 8.0625,8.0625v0c0,4.45319 -3.60931,8.0625 -8.0625,8.0625h-24.1875c-4.45319,0 -8.0625,-3.60931 -8.0625,-8.0625v0c0,-4.45319 3.60931,-8.0625 8.0625,-8.0625z" fill="url(#color-3_119280_gr3)"></path></g></g></svg>
